<?xml version="1.0" standalone="no"?><!DOCTYPE svg PUBLIC "-//W3C//DTD SVG 1.1//EN" "http://www.w3.org/Graphics/SVG/1.1/DTD/svg11.dtd"><svg t="1589072010657" class="icon" viewBox="0 0 1024 1024" version="1.1" xmlns="http://www.w3.org/2000/svg" p-id="11670" width="16" height="16" xmlns:xlink="http://www.w3.org/1999/xlink"><defs><style type="text/css"></style></defs><path d="M848 698.67c-20.62 0-37.33-16.72-37.33-37.33V512c0-164.95-133.72-298.67-298.67-298.67S213.33 347.05 213.33 512v112c0 20.62-16.71 37.33-37.33 37.33s-37.33-16.72-37.33-37.33V512c0-206.19 167.15-373.33 373.33-373.33S885.33 305.82 885.33 512v149.33c0 20.62-16.71 37.34-37.33 37.34z" fill="#e6e6e6" p-id="11671"></path><path d="M176 885.33c-61.86 0-112-50.14-112-112V624c0-41.24 33.43-74.67 74.67-74.67h74.67c41.24 0 74.67 33.43 74.67 74.67v149.33c-0.01 61.86-50.15 112-112.01 112z m784-112V624c0-41.24-33.43-74.67-74.67-74.67h-74.67c-41.24 0-74.67 33.43-74.67 74.67v149.33c0 61.86 50.14 112 112 112 61.87 0 112.01-50.14 112.01-112z" fill="#e6e6e6" p-id="11672"></path></svg>